<?xml version="1.0" standalone="no"?><!DOCTYPE svg PUBLIC "-//W3C//DTD SVG 1.1//EN" "http://www.w3.org/Graphics/SVG/1.1/DTD/svg11.dtd"><svg t="1591863151899" class="icon" viewBox="0 0 1024 1024" version="1.1" xmlns="http://www.w3.org/2000/svg" p-id="3092" xmlns:xlink="http://www.w3.org/1999/xlink" width="200" height="200"><defs><style type="text/css"></style></defs><path d="M909.55581 799.548952h-100.352v-100.352a41.301333 41.301333 0 0 0-82.505143 0v100.352h-100.352a41.301333 41.301333 0 0 0 0 82.505143h100.352v100.352a41.301333 41.301333 0 0 0 82.505143 0v-100.352h100.352a41.301333 41.301333 0 0 0 0-82.505143zM767.951238 256.585143A256.292571 256.292571 0 0 0 511.951238 0C370.541714 0 255.951238 114.834286 255.951238 256.585143A256.292571 256.292571 0 0 0 511.951238 513.121524c141.409524 0 256-114.834286 256-256.536381zM511.951238 430.665143a173.933714 173.933714 0 0 1-173.738667-174.08A173.933714 173.933714 0 0 1 511.951238 82.505143a173.933714 173.933714 0 0 1 173.738667 174.08A173.933714 173.933714 0 0 1 511.951238 430.665143z m240.006095 154.038857A436.126476 436.126476 0 0 0 511.951238 513.121524c-242.395429 0-438.857143 196.949333-438.857143 439.929905h0.097524L73.094095 955.245714c0 22.77181 18.383238 41.252571 41.155048 41.252572 22.723048 0 41.155048-18.529524 41.155047-41.252572 0-0.78019 0-1.462857-0.146285-2.243047h0.097524c0-197.38819 159.695238-357.424762 356.595809-357.424762a352.548571 352.548571 0 0 1 127.073524 23.454476 253.610667 253.610667 0 0 1 112.932571-34.377143z" p-id="3093"></path></svg>