<?xml version="1.0" standalone="no"?><!DOCTYPE svg PUBLIC "-//W3C//DTD SVG 1.1//EN" "http://www.w3.org/Graphics/SVG/1.1/DTD/svg11.dtd"><svg t="1591864271850" class="icon" viewBox="0 0 1024 1024" version="1.1" xmlns="http://www.w3.org/2000/svg" p-id="10245" xmlns:xlink="http://www.w3.org/1999/xlink" width="200" height="200"><defs><style type="text/css"></style></defs><path d="M240.64 957.44c0 35.84-25.6 61.44-61.44 61.44h-66.56C76.8 1024 51.2 993.28 51.2 957.44v-56.32h189.44v56.32zM51.2 327.68h189.44v512H51.2v-512z m189.44-66.56H51.2v-66.56c0-35.84 25.6-61.44 61.44-61.44h66.56c35.84 0 61.44 30.72 61.44 61.44v66.56zM947.2 962.56c0 35.84-30.72 61.44-61.44 61.44H691.2c-35.84 0-61.44-30.72-61.44-61.44v-768c0-35.84 30.72-61.44 61.44-61.44h194.56c35.84 0 61.44 30.72 61.44 61.44v768zM563.2 957.44c0 35.84-30.72 61.44-61.44 61.44H363.52c-30.72 5.12-56.32-25.6-56.32-61.44v-56.32h256v56.32z m0-122.88h-256v-640h256v640z m0-701.44h-256V61.44C307.2 30.72 332.8 0 363.52 0h133.12c35.84 0 66.56 30.72 66.56 61.44v71.68z" fill="#707070" p-id="10246"></path></svg>