<?xml version="1.0" standalone="no"?><!DOCTYPE svg PUBLIC "-//W3C//DTD SVG 1.1//EN" "http://www.w3.org/Graphics/SVG/1.1/DTD/svg11.dtd"><svg t="1591863655721" class="icon" viewBox="0 0 1024 1024" version="1.1" xmlns="http://www.w3.org/2000/svg" p-id="4725" xmlns:xlink="http://www.w3.org/1999/xlink" width="200" height="200"><defs><style type="text/css"></style></defs><path d="M666.88 62.976c-17.152-0.128-31.04 14.848-31.296 33.536v824.768c0 18.432 13.952 33.6 31.296 33.6a30.272 30.272 0 0 0 22.016-9.664 35.456 35.456 0 0 0 9.344-23.936V96.576c0-18.56-14.144-33.6-31.36-33.6z m85.248 19.136c-7.488 0-13.632 6.528-13.76 14.656v824.256c0 8.064 6.272 14.72 13.76 14.72 7.36 0 13.632-6.592 13.632-14.72V96.768c0-8.128-6.272-14.656-13.632-14.656z m73.024 0c-7.36 0-13.632 6.528-13.632 14.656v824.256c0 8.064 6.144 14.72 13.632 14.72s13.76-6.656 13.76-14.72V96.768c-0.192-8.128-6.272-14.784-13.76-14.656z m101.888-19.136c-17.152-0.128-30.976 14.848-31.232 33.536v824.832c0 18.368 14.016 33.472 31.232 33.472a30.08 30.08 0 0 0 22.144-9.664 36.032 36.032 0 0 0 9.28-23.808V96.512c0-18.496-14.016-33.536-31.424-33.536zM521.28 64L404.352 63.872a53.376 53.376 0 0 0-39.36 17.28 63.488 63.488 0 0 0-16.576 42.624l-0.384 768.512c0 33.024 25.024 59.84 56 59.84l116.8 0.192a52.864 52.864 0 0 0 39.296-17.344 63.232 63.232 0 0 0 16.704-42.56l0.512-768.448a63.552 63.552 0 0 0-16.704-42.688 53.184 53.184 0 0 0-39.36-17.28z m-11.136 287.488L415.232 351.36c-10.688 0.064-19.392-9.28-19.584-20.992 0.128-11.712 8.896-21.12 19.648-20.992l94.784 0.064c10.88 0 19.648 9.472 19.648 21.056 0 11.52-8.704 21.056-19.584 20.992z m0.128-89.408H415.36c-10.688 0-19.392-9.344-19.584-21.12 0-11.584 8.832-20.992 19.584-20.992l94.912 0.064c10.752 0 19.584 9.472 19.584 20.992-0.256 11.776-8.96 21.12-19.584 21.056zM237.568 63.936H120.832c-30.912 0-56 26.752-56.064 59.904l-0.256 768.448c0.256 33.344 25.28 60.096 55.808 59.84l116.8 0.192c30.912 0 56-26.752 56.128-59.904l0.32-768.448a63.808 63.808 0 0 0-16.64-42.688 53.312 53.312 0 0 0-39.36-17.28V63.936zM226.56 351.488L131.712 351.36c-10.752 0.128-19.52-9.28-19.712-20.992 0.128-11.712 8.96-21.12 19.648-20.992l94.912 0.064c10.688 0 19.52 9.472 19.52 21.056 0.064 11.52-8.768 21.056-19.52 20.992z m0-89.408H131.776c-10.688 0.064-19.456-9.344-19.584-21.12 0-11.584 8.832-20.992 19.584-20.992l94.784 0.128c10.752 0 19.584 9.472 19.584 20.992-0.128 11.712-8.896 21.056-19.584 20.992z" p-id="4726"></path></svg>