<?xml version="1.0" standalone="no"?><!DOCTYPE svg PUBLIC "-//W3C//DTD SVG 1.1//EN" "http://www.w3.org/Graphics/SVG/1.1/DTD/svg11.dtd"><svg t="1591863831030" class="icon" viewBox="0 0 1024 1024" version="1.1" xmlns="http://www.w3.org/2000/svg" p-id="4960" xmlns:xlink="http://www.w3.org/1999/xlink" width="200" height="200"><defs><style type="text/css"></style></defs><path d="M472 625.6m-36.8 0a36.8 36.8 0 1 0 73.6 0 36.8 36.8 0 1 0-73.6 0Z" p-id="4961"></path><path d="M472 904c-11.2 0-22.4-4.8-30.4-14.4-14.4-16-12.8-41.6 3.2-56 3.2-3.2 92.8-80 214.4-86.4h97.6c22.4 0 40 17.6 40 40s-17.6 40-40 40h-94.4c-92.8 4.8-164.8 65.6-164.8 67.2-8 6.4-16 9.6-25.6 9.6zM472 532.8c-22.4 0-40-17.6-40-40v-139.2c-4.8-64 25.6-185.6 171.2-201.6H854.4c22.4 0 40 17.6 40 40v166.4c0 22.4-17.6 40-40 40s-40-17.6-40-40v-126.4H609.6c-104 12.8-99.2 105.6-99.2 116.8v144c1.6 22.4-17.6 40-38.4 40z" p-id="4962"></path><path d="M472 904c-9.6 0-19.2-3.2-25.6-9.6 0 0-72-60.8-164.8-67.2h-192c-22.4 0-40-17.6-40-40V192c0-22.4 17.6-40 40-40H340.8c147.2 16 176 137.6 171.2 201.6v120c0 22.4-17.6 40-40 40S432 496 432 473.6V352v-3.2c1.6-17.6 1.6-104-99.2-116.8H129.6v515.2h153.6c59.2 3.2 110.4 22.4 148.8 43.2v-57.6c0-22.4 17.6-40 40-40s40 17.6 40 40V864c0 16-9.6 30.4-24 36.8-4.8 1.6-11.2 3.2-16 3.2z" p-id="4963"></path><path d="M974.4 665.6H737.6c-22.4 0-40-17.6-40-40s17.6-40 40-40h236.8c22.4 0 40 17.6 40 40s-17.6 40-40 40z" p-id="4964"></path><path d="M856 782.4c-22.4 0-40-17.6-40-40V507.2c0-22.4 17.6-40 40-40s40 17.6 40 40v236.8c0 20.8-17.6 38.4-40 38.4z" p-id="4965"></path></svg>