<?xml version="1.0" standalone="no"?><!DOCTYPE svg PUBLIC "-//W3C//DTD SVG 1.1//EN" "http://www.w3.org/Graphics/SVG/1.1/DTD/svg11.dtd"><svg t="1591863630232" class="icon" viewBox="0 0 1025 1024" version="1.1" xmlns="http://www.w3.org/2000/svg" p-id="3917" xmlns:xlink="http://www.w3.org/1999/xlink" width="200.1953125" height="200"><defs><style type="text/css"></style></defs><path d="M980.462592 894.053376c0 0-124.664832-21.796864-239.664128-21.796864-113.759232 0-217.869312 21.796864-217.869312 21.796864-3.780608 0-7.392256-0.631808-10.893312-1.538048-3.50208 0.90624-7.108608 1.538048-10.893312 1.538048 0 0-124.664832-21.796864-239.65696-21.796864-113.767424 0-217.873408 21.796864-217.873408 21.796864-24.067072 0-43.575296-19.51232-43.575296-43.593728L0.036864 218.361856c0 29.058048 25.856-87.18848 271.021056-87.18848 137.824256 0 206.775296 35.672064 241.005568 62.56128 34.085888-26.89024 102.44096-62.56128 238.311424-62.56128 248.677376 0 273.660928 116.246528 273.660928 87.18848l0 632.097792C1024.037888 874.541056 1004.526592 894.053376 980.462592 894.053376L980.462592 894.053376 980.462592 894.053376zM490.289152 240.078848c0 0-54.505472-65.390592-228.806656-65.390592-145.248256 0-217.94816 76.32896-217.94816 76.32896l0 577.724416c0 24.078336 41.37472 21.797888 65.441792 21.797888 0 0 74.712064-21.797888 152.50944-21.797888 85.267456 0 174.297088 21.797888 174.297088 21.797888 24.064 0 54.505472-19.592192 54.505472-43.671552L490.288128 261.955584 490.288128 240.078848 490.289152 240.078848zM980.539392 251.017216c0 0-46.183424-47.286272-130.802688-65.77664l0 360.066048-87.150592-65.38752-87.143424 65.38752L675.442688 179.740672c-95.356928 15.235072-136.190976 60.338176-136.190976 60.338176l0 566.790144c0 24.078336 24.973312 43.671552 49.040384 43.671552 0 0 74.719232-21.797888 152.50944-21.797888 85.266432 0 174.297088 21.797888 174.297088 21.797888 24.067072 0 65.439744 2.280448 65.439744-21.797888L980.538368 261.955584 980.538368 251.017216 980.539392 251.017216zM370.419712 654.292992 174.339072 654.292992c-12.036096 0-21.787648-9.755648-21.787648-21.796864l0-21.796864c0-12.03712 9.751552-21.793792 21.787648-21.793792l196.08064 0c12.032 0 21.784576 9.756672 21.784576 21.793792l0 21.796864C392.204288 644.537344 382.451712 654.292992 370.419712 654.292992L370.419712 654.292992 370.419712 654.292992zM370.419712 458.123264 174.339072 458.123264c-12.036096 0-21.787648-9.756672-21.787648-21.796864l0-21.797888c0-12.040192 9.751552-21.796864 21.787648-21.796864l196.08064 0c12.032 0 21.784576 9.756672 21.784576 21.796864L392.204288 436.3264C392.204288 448.366592 382.451712 458.123264 370.419712 458.123264L370.419712 458.123264 370.419712 458.123264zM370.419712 458.123264" p-id="3918"></path></svg>