<?xml version="1.0" standalone="no"?><!DOCTYPE svg PUBLIC "-//W3C//DTD SVG 1.1//EN" "http://www.w3.org/Graphics/SVG/1.1/DTD/svg11.dtd"><svg t="1591863046641" class="icon" viewBox="0 0 1024 1024" version="1.1" xmlns="http://www.w3.org/2000/svg" p-id="1051" xmlns:xlink="http://www.w3.org/1999/xlink" width="200" height="200"><defs><style type="text/css"></style></defs><path d="M612.1 273.1l36.8-63.3c6.4-11.7 2.9-26.4-8.1-34-12-6.5-27-2.1-33.5 9.9 0 0 0 0.1-0.1 0.1l-50.8 87.3H449.2l-50.6-87.6c-6.5-12-21.5-16.5-33.6-10-11.1 7.6-14.6 22.4-8.1 34.1l36.7 63.3M857.2 455.6v-87c0.1-52.7-47.8-95.4-106.8-95.4H255.7c-59 0-106.9 42.6-107 95.3v323.4c0 52.7 47.9 95.3 106.9 95.3h469.8c-49-35.4-77.4-88.7-77.3-144.9 0-103.1 93.6-186.6 209.1-186.7z m-231.9 95.8c-1.4 2.4-3.4 4.4-5.8 5.8L440.8 661.4c-7.5 4.3-17.1 1.8-21.4-5.7-1.4-2.4-2.1-5.1-2.1-7.8V439.2c0-8.6 7.1-15.6 15.7-15.6 2.7 0 5.4 0.7 7.8 2.1L619.6 530c7.5 4.4 10.1 13.9 5.7 21.4z" p-id="1052"></path><path d="M814.2 691.8V455.6c-103.1 0-186.6 83.5-186.6 186.6 0 56.2 25.4 109.5 69 144.9h22.3c52.6 0.1 95.3-42.6 95.3-95.3z" p-id="1053"></path><path d="M858.9 690.6V445.2c-117.3 0-212.4 86.8-212.4 193.9 0 58.4 28.9 110.8 78.6 147.6h25.3c63.4 0 109.5-34.6 108.5-96.1z" p-id="1054"></path></svg>