<?xml version="1.0" standalone="no"?><!DOCTYPE svg PUBLIC "-//W3C//DTD SVG 1.1//EN" "http://www.w3.org/Graphics/SVG/1.1/DTD/svg11.dtd"><svg t="1591863059503" class="icon" viewBox="0 0 1024 1024" version="1.1" xmlns="http://www.w3.org/2000/svg" p-id="1181" xmlns:xlink="http://www.w3.org/1999/xlink" width="200" height="200"><defs><style type="text/css"></style></defs><path d="M681.767 656.3c-13.8 18.1-39.7 21.5-57.8 7.7 0 0-0.1 0-0.1-0.1L454.967 534.3v-201c0-22.8 18.5-41.3 41.3-41.3 22.8 0 41.3 18.5 41.3 41.3v160.3l136.6 104.9c18 13.8 21.5 39.8 7.6 57.8M505.967 99.5C287.067 99.5 109.667 276.9 109.667 495.8s177.4 396.3 396.3 396.3c218.8 0 396.3-177.4 396.3-396.3S724.867 99.5 505.967 99.5" p-id="1182"></path></svg>