<?xml version="1.0" standalone="no"?><!DOCTYPE svg PUBLIC "-//W3C//DTD SVG 1.1//EN" "http://www.w3.org/Graphics/SVG/1.1/DTD/svg11.dtd"><svg t="1591863950850" class="icon" viewBox="0 0 1575 1024" version="1.1" xmlns="http://www.w3.org/2000/svg" p-id="6384" xmlns:xlink="http://www.w3.org/1999/xlink" width="307.6171875" height="200"><defs><style type="text/css"></style></defs><path d="M787.359194 1023.566952H225.499673c0-110.427127 19.09346-186.446657 110.781439-220.73615 91.84545-34.289493 210.224905-76.01953 279.040098-133.142439 76.491946-64.681558 57.359117-64.681558 38.265657-87.514975-26.770213-30.352697-30.470801-106.608435-30.470801-106.608435-80.310638-22.833417-61.217177-152.157164-42.123717-152.157164 19.09346 0 19.09346-7.637384 7.676753-76.098266-15.353504-87.514974-7.676752-133.181808 34.446964-186.446657C664.924839 7.637384 787.359194 0 787.359194 0s122.355619 7.637384 164.361232 60.862866c42.005613 53.264849 49.682365 98.931683 34.446965 186.446657-11.534812 68.578986-11.534812 76.098266 7.558648 76.098266s34.446965 129.363116-42.005613 152.157164c0 0-3.85806 76.137634-30.510169 106.608435-19.172196 22.833417-38.383761 22.833417 38.186921 87.514975 68.775826 57.083542 187.194648 102.750375 279.000731 133.221175 91.727346 30.392065 110.860175 110.230287 110.860174 220.657414H787.359194zM183.454692 966.483411H0c0-79.916958 15.274768-140.819192 84.050594-163.652609 68.893929-22.833417 156.763216-57.044174 206.406213-98.97105 57.359117-49.367421 42.123717-49.367421 26.770212-64.64219-19.09346-22.833417-22.951521-79.87759-22.95152-79.87759-57.280381-15.274768-45.863673-110.309023-30.510169-110.309024 15.2354 0 15.2354-3.936796 3.739956-57.122909-11.416708-64.681558-7.558648-98.971051 26.770213-137.0005 30.588905-41.808773 122.316251-45.627465 122.316251-45.627465s91.727346 3.818692 122.355618 45.666833c7.598016 7.637384 11.416708 19.014725 19.093461 26.652109 0 0-34.446965 18.975357-38.186921 57.004805-3.936796 34.289493-3.936796 68.578986 15.2354 117.985776 19.132828 49.446157 26.770213 76.098266-15.2354 114.127715-22.912153 19.014725-7.676752 102.750375-7.676752 102.750375s-107.08085 57.083542-221.720349 95.073622c-118.418823 38.108185-107.002114 197.902733-107.002115 197.902734z m1207.809004 0s11.416708-159.833916-107.002114-197.942102c-114.639499-38.029449-221.720349-95.034255-221.720349-95.034254s15.274768-83.775018-7.676753-102.789743c-42.044981-38.029449-34.446965-64.681558-15.274768-114.167083 19.09346-49.446157 19.09346-83.656914 15.274768-117.946408-3.739956-38.029449-38.186921-57.004806-38.186921-57.004805 7.676752-7.637384 11.534812-19.014725 19.093461-26.652109 30.588905-41.848141 122.355619-45.666833 122.355619-45.666833s91.727346 3.818692 122.316251 45.666833c34.446965 37.990081 38.186921 72.279574 26.770212 136.961132-11.495444 53.304217-11.495444 57.12291 3.739956 57.122909 15.353504 0 26.770213 95.034255-30.510168 110.309024 0 0-3.936796 57.044174-22.912153 79.87759-15.353504 15.274768-30.628273 15.274768 26.770213 64.64219 49.603629 41.926877 137.591019 76.137634 206.366844 98.97105 68.775826 22.833417 84.050594 83.775018 84.050594 163.613241h-183.454692z" p-id="6385"></path></svg>